<?xml version="1.0" encoding="utf-8"?>
<!-- Generator: Adobe Illustrator 18.0.0, SVG Export Plug-In . SVG Version: 6.00 Build 0)  -->
<!DOCTYPE svg PUBLIC "-//W3C//DTD SVG 1.1//EN" "http://www.w3.org/Graphics/SVG/1.1/DTD/svg11.dtd">
<svg version="1.1" id="Layer_1" xmlns="http://www.w3.org/2000/svg" xmlns:xlink="http://www.w3.org/1999/xlink" x="0px" y="0px"
	 viewBox="0 0 432 432" enable-background="new 0 0 432 432" xml:space="preserve">
<g>
	<path d="M195.1,154.7c0-0.4-0.1-0.9-0.3-1.8c0-0.5-0.3-1.2-0.3-1.8l-0.3-1.8l-0.5-1.7c-0.1-0.6,0-1.3-0.4-1.8
		c-0.1-0.6-0.4-1.2-0.5-1.7c-0.4-0.6-0.1-1.3-0.5-1.8c-0.4-0.5-0.3-1.2-0.6-1.7c-0.1-0.4-0.4-1-0.8-1.7c-0.4-0.5-0.4-1.2-0.8-1.7
		c-0.4-0.5-0.4-1.2-0.8-1.7c-0.1-0.4-0.5-0.9-1-1.6l-1.2-1.4l-0.9-1.6c-0.4-0.4-0.9-0.8-1.3-1.3c-0.4-0.4-0.6-1-1.2-1.4l-1.4-1.2
		c-0.4-0.4-1-0.6-1.6-1l-1.4-1.2c-0.5-0.4-1-0.5-1.6-0.9c-0.5-0.4-1.2-0.3-1.8-0.6c-0.6-0.4-1.2-0.5-1.8-0.6
		c-0.9-0.4-1.6-0.5-1.9-0.6l-1.9-0.3c-0.6,0-1.3-0.1-1.9-0.1h-1.9c-0.6,0-1.3,0.1-1.9,0.1l-1.8,0.4c-0.9,0.1-1.6,0.4-1.9,0.5
		c-0.6,0.4-1.3,0.3-1.8,0.6l-1.7,1.2l-1.6,1c-0.6,0.6-1,1-1.4,1.3l-1.2,1.4l-1.4,1.2l-1,1.6l-1.3,1.4l-1.2,1.4
		c-0.1,0.4-0.5,0.9-1,1.6c-0.4,0.5-0.4,1.2-0.8,1.7l-1,1.6c-0.4,0.5-0.4,1.2-0.8,1.7c-0.4,0.5-0.4,1.2-0.8,1.7
		c-0.4,0.6-0.6,1.3-0.8,1.7c-0.4,0.5-0.1,1.2-0.5,1.8c-0.1,0.5-0.4,1-0.6,1.7c-0.1,0.6-0.5,1.2-0.6,1.8c-0.1,0.5-0.1,1.2-0.5,1.8
		l-0.3,1.8l-0.5,1.8c-0.1,0.4-0.1,0.9-0.1,1.8l-0.4,1.8c-0.1,0.9-0.3,1.4-0.3,1.8v5.6c0,0.6-0.1,1.3-0.1,1.9s0.1,1.2,0.1,1.8
		c0,0.6,0.3,1.3,0.4,1.8c0,0.9,0,1.6,0.1,1.9c0,0.5,0.3,1.2,0.4,1.8l0.3,1.8l0.5,1.8c0.1,0.6-0.1,1.3,0.3,1.8
		c0.1,0.6,0.5,1.2,0.6,1.8c0.4,0.5,0.1,1.2,0.5,1.8c0.1,0.5,0.1,1.2,0.5,1.7c0.1,0.4,0.4,1,0.8,1.7c0.4,0.6,0.5,1.2,0.9,1.7l1,1.7
		c0.4,0.5,0.4,1.2,0.8,1.7l1.2,1.4l0.9,1.1c2.8-4.8,6-9.3,9.7-13.4c-0.2-0.4-0.3-0.9-0.5-1.3l-1-1.7c-0.4-0.6-0.3-1.2-0.6-1.8
		c-0.1-0.4-0.4-1-0.8-1.7c-0.4-0.6-0.1-1.3-0.5-1.9l-0.6-1.8l-0.3-1.8l-0.5-1.9c-0.1-0.5,0-1.3-0.1-1.8c-0.1-0.4-0.1-1-0.1-1.9
		c-0.1-0.9-0.3-1.6-0.3-1.9c-0.1-0.4-0.1-1-0.1-1.9c0-0.6-0.1-1.2-0.1-1.8c0-0.4,0.1-1,0.3-1.9c0-0.6-0.1-1.3-0.1-1.9
		c0-0.6,0.1-1.3,0.1-1.9c0.1-0.4,0.1-1,0.1-1.9l0.4-1.8c0-0.5,0-1.2,0.1-1.8c0-0.5,0.4-1.2,0.4-1.8c0.1-0.6,0.3-1.3,0.3-1.8l0.3-1.8
		l0.4-1.8l0.4-1.7c0.4-0.6,0.3-1.4,0.6-1.9c0.4-0.6,0.5-1.3,0.9-1.9l1.3-1.2c0.4-0.3,0.8-0.6,1.3-1.2c0.4-0.1,1-0.4,1.7-0.5
		c0.5-0.3,1-0.4,1.7-0.4c0.5,0.1,1.2,0,1.7,0.4c0.5,0.1,1,0.3,1.7,0.6c0.4,0.4,0.9,0.5,1.4,0.9c0.5,0.5,1,0.8,1.4,1.3
		c0.4,0.3,0.8,0.8,1.3,1.4l1.2,1.6l1,1.6c0.4,0.4,0.6,1,0.9,1.7l0.9,1.6l0.9,1.8c0.4,0.5,0.4,1.2,0.8,1.7c0.4,0.6,0.3,1.2,0.6,1.8
		c0.4,0.5,0.6,1.2,0.8,1.7c0.4,0.6,0.1,1.3,0.5,1.8c0.1,0.6,0.5,1.2,0.6,1.7c0.4,0.6,0.3,1.2,0.6,1.8c0.1,0.6,0.3,1.2,0.6,1.8
		l0.3,1.8c0.1,0.5,0.3,1,0.6,1.7l0.4,1.8c0.1,0.6,0,1.3,0.1,1.9l0.2,0.9c4.4-2.2,9.1-4,14-5.4c0,0,0-0.1,0-0.1
		c0-0.5-0.1-1.2-0.1-1.8V154.7z M257.6,154.7c0-0.4-0.1-0.9-0.3-1.8c0-0.5-0.3-1.2-0.3-1.8l-0.3-1.8l-0.5-1.7
		c-0.1-0.6,0-1.3-0.4-1.8c-0.1-0.6-0.4-1.2-0.5-1.7c-0.4-0.6-0.1-1.3-0.5-1.8c-0.4-0.5-0.3-1.2-0.6-1.7c-0.1-0.4-0.4-1-0.8-1.7
		c-0.4-0.5-0.4-1.2-0.8-1.7c-0.4-0.5-0.4-1.2-0.8-1.7c-0.1-0.4-0.5-0.9-1-1.6l-1.2-1.4l-0.9-1.6c-0.4-0.4-0.9-0.8-1.3-1.3
		c-0.4-0.4-0.6-1-1.2-1.4l-1.4-1.2c-0.4-0.4-1-0.6-1.6-1L242,125c-0.5-0.4-1-0.5-1.6-0.9c-0.5-0.4-1.2-0.3-1.8-0.6
		c-0.6-0.4-1.2-0.5-1.8-0.6c-0.9-0.4-1.6-0.5-1.9-0.6l-1.9-0.3c-0.6,0-1.3-0.1-1.9-0.1h-1.9c-0.6,0-1.3,0.1-1.9,0.1l-1.8,0.4
		c-0.9,0.1-1.6,0.4-1.9,0.5c-0.6,0.4-1.3,0.3-1.8,0.6l-1.7,1.2l-1.6,1c-0.6,0.6-1,1-1.4,1.3l-1.2,1.4l-1.4,1.2l-1,1.6l-1.3,1.4
		l-1.2,1.4c-0.1,0.4-0.5,0.9-1,1.6c-0.4,0.5-0.4,1.2-0.8,1.7l-1,1.6c-0.4,0.5-0.4,1.2-0.8,1.7c-0.4,0.5-0.4,1.2-0.8,1.7
		c-0.4,0.6-0.6,1.3-0.8,1.7c-0.4,0.5-0.1,1.2-0.5,1.8c-0.1,0.5-0.4,1-0.6,1.7c-0.1,0.6-0.5,1.2-0.6,1.8c-0.1,0.5-0.1,1.2-0.5,1.8
		l-0.3,1.8l-0.5,1.8c-0.1,0.4-0.1,0.9-0.1,1.8l-0.1,0.5c4.2-0.8,8.5-1.2,12.9-1.2c0-0.5-0.1-1-0.1-1.5c0-0.6,0.1-1.3,0.1-1.9
		c0.1-0.4,0.1-1,0.1-1.9l0.4-1.8c0-0.5,0-1.2,0.1-1.8c0-0.5,0.4-1.2,0.4-1.8c0.1-0.6,0.3-1.3,0.3-1.8l0.3-1.8l0.4-1.8l0.4-1.7
		c0.4-0.6,0.3-1.4,0.6-1.9c0.4-0.6,0.5-1.3,0.9-1.9l1.3-1.2c0.4-0.3,0.8-0.6,1.3-1.2c0.4-0.1,1-0.4,1.7-0.5c0.5-0.3,1-0.4,1.7-0.4
		c0.5,0.1,1.2,0,1.7,0.4c0.5,0.1,1,0.3,1.7,0.6c0.4,0.4,0.9,0.5,1.4,0.9c0.5,0.5,1,0.8,1.4,1.3c0.4,0.3,0.8,0.8,1.3,1.4l1.2,1.6
		l1,1.6c0.4,0.4,0.6,1,0.9,1.7l0.9,1.6l0.9,1.8c0.4,0.5,0.4,1.2,0.8,1.7c0.4,0.6,0.3,1.2,0.6,1.8c0.4,0.5,0.6,1.2,0.8,1.7
		c0.4,0.6,0.1,1.3,0.5,1.8c0.1,0.6,0.5,1.2,0.6,1.7c0.4,0.6,0.3,1.2,0.6,1.8c0.1,0.6,0.3,1.2,0.6,1.8l0.3,1.8c0.1,0.5,0.3,1,0.6,1.7
		l0.2,1.1c4.9,1.8,9.6,4,14,6.7c0-0.3,0-0.6,0.1-0.9v-1.9c0-0.4,0.1-1,0.3-1.9v-1.9c0-0.6,0.1-1.3,0.1-1.9c0-0.5-0.1-1.2-0.1-1.8
		V154.7z M360.9,179.1c-0.1-0.5,0-1.2,0-1.8l-0.4-1.8l-0.4-1.8c-0.4-0.6-0.5-1.2-0.6-1.7c-0.4-0.6-0.3-1.2-0.6-1.8l-0.8-1.6l-1-1.7
		c-0.4-0.5-0.4-1.2-0.8-1.7l-1.2-1.4l-1-1.6c-0.4-0.5-0.9-0.8-1.4-1.3c-0.4-0.4-0.8-1-1.3-1.4l-1.4-1.2l-1.4-1.3l-1.4-1.2l-1.6-1.2
		l-1.4-1.2l-1.6-1.2c-0.5-0.4-1-0.5-1.6-0.9c-0.6-0.5-1.2-0.9-1.6-1l-1.6-0.9l-1.4-1.2c-0.6-0.4-1.2-0.5-1.7-0.9
		c-0.5-0.4-1.2-0.5-1.7-0.9c-0.4-0.1-0.9-0.5-1.6-1c-0.5-0.4-1-0.5-1.6-0.9l-1.4-1.2c-0.5-0.5-1-0.9-1.4-1.4c-0.5-0.6-0.9-1.2-1-1.6
		l-0.6-1.8c-0.1-0.4-0.1-1-0.1-1.9c0-0.6-0.1-1.3,0-1.9c0-0.6,0.1-1.2,0.3-1.8c0.1-0.4,0.3-1,0.6-1.7c0.3-0.6,0.5-1.3,0.9-1.7
		c0.4-0.5,0.8-0.9,1.3-1.3c0.3-0.4,0.8-0.8,1.6-1c0.6-0.4,1.3-0.6,1.7-0.8c0.6-0.1,1.3-0.3,1.8-0.3c0.6,0,1.3,0.1,1.9,0.1
		c0.9,0.1,1.6,0.4,1.9,0.5l1.8,0.8l1.6,1.2l1.4,1.3c0.5,0.4,1,0.6,1.6,1.2c0.5,0.5,0.9,0.9,1.2,1.3c0.5,0.4,0.8,0.9,1.2,1.4l1.3,1.2
		c0.4,0.5,0.6,1.2,1,1.6l1.2,1.4l1.3,1.4c0.4,0.4,0.5,1,0.9,1.4c0.4,0.5,0.9,0.9,1.3,1.3c0.5,0.6,0.9,0.8,1.4,0.9
		c0.5,0.1,1,0.1,1.7,0c0.4-0.1,0.9-0.5,1.4-1c0.4-0.6,0.5-1.2,0.5-1.6c0.1-0.9-0.3-1.6-0.6-2.2c-0.4-0.6-0.3-1.3-0.6-1.8
		c-0.4-0.6-0.6-1.2-0.8-1.7c-0.4-0.6-0.1-1.3-0.5-1.9c-0.1-0.5-0.4-1-0.6-1.7c-0.1-0.6,0-1.3-0.1-1.9l-0.4-1.8v-1.9
		c0-0.6-0.1-1.3-0.1-1.9c0.1-0.4,0-1-0.4-1.7c-0.4-0.5-0.9-0.9-1.4-1c-0.6,0-1.2,0.1-1.8,0.5c-0.4,0.4-1,0.6-1.7,0.9
		c-0.6,0.1-1.3,0.3-1.8,0.3c-0.5,0.1-1.2,0.1-1.8,0c-0.4-0.1-1-0.3-1.7-0.6l-1.9-0.4c-0.4-0.1-1-0.1-1.9-0.1
		c-0.6-0.1-1.2-0.5-1.8-0.5c-0.6-0.1-1.3,0-1.9,0c-0.6,0-1.3,0.1-1.9,0.1c-0.6,0.1-1.3,0-1.9,0.1c-0.5,0.1-1,0.3-1.7,0.6
		c-0.5,0.1-1,0.4-1.7,0.6l-1.6,0.9c-0.5,0.4-1.2,0.4-1.6,0.8c-0.5,0.4-0.9,0.9-1.3,1.3l-1.4,1.2l-1.2,1.4c-0.4,0.4-0.5,1-0.9,1.6
		c-0.5,0.6-0.9,1.2-1,1.6c-0.4,0.6-0.5,1.2-0.9,1.7l-0.9,1.8l-0.3,1.8c-0.4,0.6-0.6,1.2-0.8,1.8c0,0.9,0,1.6-0.1,1.9
		c0,0.6-0.1,1.3-0.1,1.9c0,0.5,0,1.2,0.1,1.8c0,0.6-0.1,1.3-0.1,1.9l0.5,1.9c0.1,0.5,0,1.2,0.4,1.8l0.5,1.8c0.4,0.6,0.3,1.2,0.6,1.8
		c0.4,0.5,0.3,1.2,0.6,1.8l1.2,1.6c0.1,0.4,0.5,0.9,1,1.6c0.4,0.5,0.6,1.2,1,1.6c0.4,0.5,0.9,0.9,1.4,1.4c0.4,0.4,0.6,1,1.2,1.4
		c0.4,0.5,0.9,0.9,1.3,1.3l1.6,1l1.3,1.2l1.6,0.9l1.6,0.9l2.8,2.1l1.6,1c0.4,0.4,1,0.5,1.4,0.9c0.4,0.3,0.8,0.6,1.3,1.2
		c0.5,0.4,1,0.6,1.4,1l1.4,1.2l1.2,1.4l1.3,1.2l1.2,1.3c0.6,0.6,1,1,1.2,1.4c0.4,0.5,0.5,1.2,0.9,1.7c0.4,0.5,0.4,1.2,0.5,1.7
		c0.1,0.9,0.3,1.4,0.3,1.8c0.1,0.6-0.1,1.3-0.1,1.8c-0.1,0.6,0.1,1.3-0.3,1.8c-0.1,0.6-0.5,1-0.9,1.7l-0.9,1.6l-1.4,1.2l-1.6,1
		l-1.8,0.8l-1.9,0.5c-0.6,0-1.4-0.1-2.1-0.1H336c-0.4-0.1-1-0.3-1.9-0.6c-0.5-0.1-1.3-0.1-1.9-0.5l-1.6-1.2c-0.6-0.5-1.2-0.9-1.6-1
		l-1.6-1.2c-0.4-0.4-0.8-0.9-1.3-1.3c-0.4-0.5-1-0.8-1.4-1.3l-1.2-1.6l-1-1.4c-0.4-0.5-0.5-1.2-0.9-1.7c-0.5-0.6-0.9-1.2-1-1.6
		c-0.4-0.9-0.6-1.4-0.9-1.6c-0.6-0.4-1.2-0.5-1.8-0.3c-0.6,0.1-1,0.4-1.2,1c-0.4,0.5,0,1.2,0,1.7c-0.1,0.6-0.1,1.3,0.1,1.9l1,2.1
		c0.4,0.9,0.3,1.6,0.6,2.2l0.5,1.8c0.4,0.5,0.3,1.2,0.4,1.8l0.5,1.7l0.5,1.8l0.5,1.8c0.1,0.5,0,1.2,0.1,1.8l0.5,1.8
		c0.1,0.6,0.4,1.2,0.8,1.6c0.4,0.5,0.9,0.8,1.6,0.6c0.4-0.1,0.9-0.4,1.6-0.9l1.8-0.9c0.6-0.4,1.3-0.3,1.9-0.4
		c0.6-0.1,1.2-0.3,2.1-0.1h1.8c0.4,0,0.9,0.1,1.8,0.3c0.5,0,1,0.4,1.7,0.5c0.6,0.4,1.3,0.3,1.9,0.4c0.4,0.1,1,0.1,1.9,0.1
		c0.6,0.1,1.3,0,1.9,0c0.6-0.1,1.3,0,1.9-0.1l1.8-0.5c0.6-0.4,1.3-0.3,1.8-0.6c0.6-0.4,1.2-0.5,1.7-0.9c0.6-0.4,1.3-0.5,1.8-0.9
		l1.4-1.3c0.5-0.4,1.2-0.6,1.7-1.2l1.3-1.4c0.4-0.4,0.6-0.9,1-1.6c0.5-0.6,0.9-1.3,1-1.7c0.4-0.6,0.5-1.3,0.6-1.7
		c0.4-0.5,0.6-1,0.8-1.7c0.4-0.6,0.5-1.3,0.6-1.7c0.4-0.6,0.3-1.2,0.4-1.8c0.3-0.6,0.4-1.2,0.4-1.8l0.3-1.8v-1.8
		C361.1,180.4,360.9,179.8,360.9,179.1z M311.2,141.1l-0.3-1.9c-0.1-0.6-0.5-1.2-0.6-1.8l-0.4-1.8c-0.4-0.5-0.5-1-0.9-1.7
		c-0.4-0.5-0.3-1.2-0.6-1.7l-1.2-1.6l-1.3-1.4c-0.4-0.4-0.8-1-1.3-1.4l-1.4-1.2c-0.4-0.1-0.9-0.5-1.6-1c-0.6-0.4-1.2-0.3-1.8-0.6
		c-0.5-0.4-1-0.5-1.6-0.9c-0.5-0.1-1.2-0.5-1.7-0.6l-1.8-0.3l-1.8-0.3c-0.6,0-1.2-0.3-1.8-0.3c-0.6-0.1-1.3,0.1-1.8,0.1
		c-0.6,0-1.3,0.1-1.8,0.1l-1.8,0.3c-0.6,0.1-1.3,0-1.8,0.4l-7.2,2.1c-0.4,0.1-1,0.1-1.9,0.1c-0.9,0.1-1.6,0.3-1.9,0.3H271l-1.9-0.3
		c-0.6-0.1-1.2-0.3-1.8-0.6l-1.8-0.5l-1.7-1c-0.6-0.3-1.2-0.5-1.7-0.6c-0.6,0-1.3,0.3-1.7,0.6c-0.4,0.5-0.5,1.2-0.4,1.8
		c0.1,0.4,0.4,0.9,0.9,1.6c0.4,0.5,0.5,1,0.9,1.4l1,1.4l0.8,1.6c0.4,0.6,0.5,1.2,0.6,1.6l0.4,1.7c0.1,0.6,0.3,1.3,0.3,1.7
		c0,0.6,0.1,1.2,0.1,2.1c0.1,0.4,0.1,1,0.1,1.9v1.9c0,0.6-0.1,1.3-0.1,1.9c0,0.5,0.3,1.2,0.3,1.8v1.9c0,0.5,0,1.2,0.1,1.8
		c0,0.6,0.1,1.3,0.1,1.9c0,0.5-0.3,1.2-0.1,1.8c0,0.6-0.1,1.3-0.1,1.9s0.3,1.2,0.3,1.8v3.7c0,0.6-0.1,1.3-0.1,1.9s0.1,1.2,0.1,1.8
		s-0.1,1.3-0.1,1.9v1.8c0,0.6-0.1,1.3-0.1,1.9c0,0.6,0.3,1.3,0.1,1.8c0,0.2,0,0.3,0,0.5c4.2,3.4,8.1,7.2,11.7,11.5
		c1.4,1.7,2.7,3.5,4,5.3c-0.1-0.4-0.2-0.8-0.2-1.1c0-0.6,0.3-1.2,0.3-1.8c0-0.5-0.1-1.2-0.1-1.7c0-0.6-0.1-1.2-0.1-1.8
		c0-0.6,0.3-1.3,0.3-1.9c0-0.6-0.1-1.3-0.1-1.9v-2.1c0-0.6-0.1-1.3-0.1-1.9v-2.1c0-0.9,0.1-1.3,1.3-1.2c0.4,0.1,1,0.1,1.9,0.1
		c0.6,0.1,1.3,0,1.9,0c0.4-0.1,1-0.1,1.9-0.1l1.8-0.3l1.9-0.4c0.6-0.1,1.2-0.4,1.8-0.8c0.5-0.4,1.2-0.3,1.8-0.6
		c0.5-0.4,1-0.5,1.7-0.9l1.6-1l1.6-1.2c0.5-0.4,1.2-0.6,1.7-1.2l1.3-1.4c0.4-0.4,0.9-0.8,1.3-1.3l1.3-1.3l1-1.4
		c0.5-0.6,0.9-1.2,1-1.6l1-1.6c0.4-0.5,0.1-1.2,0.5-1.7c0.3-0.6,0.5-1.2,0.6-1.7c0.4-0.5,0.3-1.2,0.4-1.8l0.4-1.7l0.3-1.8
		c0-0.6,0.4-1.2,0.4-1.8c0-0.4-0.1-0.9-0.3-1.8c0-0.5,0.3-1.2,0.3-1.8C311.3,142.3,311.2,141.8,311.2,141.1z M296.3,150.7
		c0,0.6-0.3,1.3-0.4,1.9c0,0.5-0.3,1.2-0.4,1.8c-0.1,0.5,0,1.2-0.4,1.8l-0.5,1.8c-0.1,0.4-0.4,1-0.8,1.7c-0.4,0.6-0.5,1.3-0.9,1.8
		c-0.4,0.5-0.9,0.9-1.3,1.3c-0.6,0.6-1,1-1.4,1.3c-0.6,0.5-1.2,0.9-1.6,1c-0.5,0.4-1.2,0.5-1.7,0.9c-0.6,0.4-1.3,0.4-1.8,0.5
		c-0.6,0.1-1.3,0.4-1.9,0.4c-0.9,0.1-1.4,0.1-1.8-0.3c-0.4-0.5-0.5-1.2-0.5-1.8c0.1-0.4,0.1-0.9,0.1-1.8c0-0.5,0.1-1.2,0.1-1.7
		c0-0.6-0.1-1.3-0.1-1.8c0-0.6,0.1-1.2,0.1-1.8c0-0.6-0.1-1.2-0.1-1.8c0-0.5-0.1-1.2-0.1-1.8c0-0.5,0.1-1.2,0.1-1.7
		c0-0.6,0.1-1.3,0.1-1.8c0-0.6-0.1-1.3-0.1-1.8c0-0.6,0.1-1.2,0.1-1.8v-1.8c0-0.8,0-1.4,0.1-1.8c0-0.5-0.1-1.2-0.1-1.8
		c0.1-0.6,0.3-1.3,0.3-1.8s0.1-1.2,0.1-1.7c0.1-0.6,0-1.3,0-1.8s0.4-1.2,0.4-1.7c0.1-0.6,0-1.2,0.1-1.8s0.5-1.2,0.9-1.7
		c0.5-0.6,0.9-1.2,1.3-1.3c0.4-0.1,0.9-0.3,1.8-0.3c0.5,0,1.2-0.1,1.8,0.3l1.6,0.8l1.4,1.2l1,1.3c0.4,0.5,0.5,1,0.9,1.4l0.8,1.6
		c0.4,0.5,0.3,1,0.6,1.7c0.4,0.5,0.3,1.2,0.6,1.7l0.5,1.8l0.5,1.9c0,0.5,0,1.2,0.1,1.8c0,0.6,0.3,1.3,0.3,1.9c0,0.6,0.1,1.2,0.1,1.8
		S296.3,150,296.3,150.7z M135.2,122.6l-1.4,0.4c-0.6,0-1,0-1.4,0.1c-0.6,0.4-1.2,0.4-1.8,0.8l-1.8,0.4l-1.8,0.5
		c-0.4,0.1-1,0.1-1.9,0.1c-0.9,0.1-1.6,0.3-1.9,0.3c-0.5,0-1.2-0.1-1.8-0.1c-0.4,0-1-0.1-1.9-0.3c-0.5-0.1-1.3,0.1-1.8-0.3
		c-0.6-0.1-1.3-0.4-1.8-0.8c-0.6-0.3-1.3-0.5-1.7-0.9c-0.6-0.4-1.2-0.6-1.8-0.8c-0.5,0-1,0.3-1.6,0.9c-0.5,0.5-0.8,1-0.6,1.7
		l1.2,1.4l2.1,3.1c0.4,0.5,0.6,1,0.8,1.7c0.1,0.4,0.4,0.9,0.5,1.8c0.4,0.5,0.3,1.2,0.4,1.7c0.1,0.4,0.1,1,0.1,1.9
		c0,0.6,0.3,1.3,0.3,1.9v1.9l0.3,1.9v1.9c0,0.6-0.1,1.3-0.1,1.9c0.1,0.9,0.3,1.6,0.3,1.9c0,0.6-0.1,1.3-0.1,1.9
		c0,0.6,0.1,1.2,0.1,1.8c0,0.6-0.1,1.3-0.1,1.8v9.2c0,0.6,0.1,1.2,0.1,1.8c0,0.9-0.1,1.6-0.4,1.8c-0.3,0.3-0.8,0.4-1.7,0.4h-3.8
		c-0.5,0-1.2-0.3-1.8-0.1c-0.6,0-1.2,0.1-1.8,0.1c-0.6,0-1.3,0.1-1.8,0.1c-0.6,0-1.3-0.1-1.9-0.1c-0.5,0-1.2,0.1-1.8,0.1h-1.8
		c-0.6,0.1-1.3-0.1-1.8,0c-1.4,0-1.8,0-1.8-1.4c0.1-0.4,0.1-1,0.1-1.9c0-0.6,0.1-1.2,0.1-1.8v-1.9c0-0.5,0.1-1.2,0.1-1.8
		c0-0.6-0.1-1.2-0.1-1.8c0-0.6-0.1-1.3-0.1-1.9v-3.6c0-0.6,0.1-1.3,0.1-1.9c0-0.6-0.1-1.2-0.1-1.8c0-0.5,0.1-1.2,0.3-1.8v-3.7
		c0-0.6,0.1-1.3,0.1-1.8l0.3-1.9c0-0.6-0.1-1.2,0-1.8c0-0.6-0.1-1.3,0-1.9l0.4-1.8c0.4-0.6,0.3-1.2,0.6-1.7l1-1.6
		c0.4-0.5,0.6-1,1.2-1.4l1.7-1c0.4-0.1,0.6-0.4,0.8-1c0.1-0.4,0-0.9-0.1-1.4c-0.4-1-1.2-1.4-2.2-1.2c-0.5,0-0.9,0.1-1.4,0.3
		l-1.4,0.4l-1.8,0.5c-0.6,0.1-1.2,0.3-1.8,0.6l-1.8,0.4l-1.9,0.4c-0.5,0-1.2,0.1-1.8,0.1c-0.6,0.1-1.3,0.1-1.9,0
		c-0.6,0-1.2-0.3-1.8-0.4c-0.5-0.1-1.2,0-1.7-0.4c-0.5-0.1-0.9-0.3-1.4-0.6c-0.4-0.1-0.9-0.3-1.6-0.6l-1.6-0.8
		c-0.5-0.3-1-0.4-1.4-0.3c-0.5,0-0.9,0.3-1.3,0.6c-0.4,0.4-0.5,0.9-0.4,1.3c0,0.6,0.1,1.2,0.4,1.4c0.4,0.4,0.4,0.9,0.8,1.3l1,1.3
		c0.4,0.4,0.8,0.9,1,1.4c0.4,0.5,0.5,1,0.9,1.6l0.4,1.7l0.4,1.8c0,0.6,0.1,1.2,0.1,1.8c0,0.6,0.1,1.2,0.1,1.8v1.8
		c0,0.6,0.1,1.3,0.1,1.8c0,0.6-0.1,1.3-0.1,1.9c0.1,0.5,0,1.2,0.1,1.8v5.4c0,0.6,0.3,1.3,0.3,1.9c0,0.5-0.3,1.2-0.1,1.8
		c0,0.5,0.1,1.2,0.1,1.8s-0.1,1.2-0.1,1.8c0,0.5,0.1,1.2,0.3,1.8v1.9c0,0.5-0.3,1.2-0.3,1.8v1.8c-0.1,0.6,0,1.2,0,1.8v1.8
		c0,0.6-0.1,1.3-0.1,1.9v1.8c0,0.5,0.1,1.2,0.1,1.8c-0.1,0.4-0.1,1-0.1,1.8c-0.1,0.6-0.1,1.3-0.1,1.8c0,0.9,0,1.4-0.1,1.8
		c0,0.6,0.1,1.3,0.1,1.9c-0.1,0.6-0.3,1.3-0.3,1.8c-0.1,0.4-0.1,0.9-0.1,1.8l-0.4,1.7l-0.3,1.8c0,0.9,0,1.4-0.1,1.8
		c-0.4,0.6-0.4,1.2-0.8,1.8c-0.1,0.5-0.4,1-0.5,1.7c-0.4,0.5-0.5,1-0.9,1.6c-0.4,0.5-0.4,1.2-0.8,1.7l-1,1.4
		c-0.4,0.5-0.9,0.9-1.3,1.3c-0.4,0.4-0.6,0.8-0.8,1.3c-0.1,0.6,0,1,0.5,1.4c0.4,0.4,0.8,0.6,1.4,0.6c0.4,0,0.9-0.1,1.6-0.5l1.6-1
		c0.6-0.4,1.3-0.4,1.8-0.5l3.6-1l1.8-0.4c0.6-0.1,1.3-0.3,1.8-0.3c0.5,0,1.2,0.1,1.8,0.1c0.4,0,1,0.1,1.7,0.3c0.6,0.1,1.3,0,1.8,0.4
		c0.4,0.1,1,0.3,1.7,0.6c0.5,0.4,1,0.5,1.6,0.9c0.5,0.4,1,0.5,1.6,0.9c0.6,0.4,1.3,0.6,1.8,0.6c0.6,0,1.3-0.3,1.8-0.9
		c0.4-0.4,0.5-1,0.4-1.7c-0.4-0.6-0.6-1.2-0.9-1.4l-1.2-1.3c-0.4-0.5-0.5-1-0.9-1.6c-0.4-0.5-0.6-0.9-0.8-1.4
		c-0.4-0.6-0.5-1.3-0.6-1.7l-0.4-1.7c0-0.5-0.1-1.2-0.1-1.7c-0.1-0.6,0-1.3,0-1.8c0-0.6-0.1-1.2-0.1-1.8v-3.6c0-0.5-0.3-1.2-0.3-1.8
		c0-0.5,0.1-1.2,0.1-1.7v-1.8c0-0.6,0.1-1.3,0.1-1.8c0-0.6-0.1-1.2-0.1-1.8c0-1.4,0.8-1.2,1.7-1.2c0.6,0,1.3-0.1,1.9-0.1
		s1.3-0.1,1.9-0.1s1.3,0.1,1.9,0.1s1.3-0.3,1.9-0.3c0.9,0.1,1.4,0.3,1.8,0.3h1.9c0.6,0,1.3-0.3,1.9-0.3h1.9c0.4,0,1-0.1,1.9-0.3
		c1.4-0.1,1.4,0.8,1.4,1.7c0,0.6-0.3,1.3-0.3,1.8c-0.1,0.6,0,1.3-0.1,1.8c0,0.6,0.1,1.3,0.1,1.9c0,0.5-0.1,1.2-0.1,1.8
		c-0.1,0.5,0,1.2-0.1,1.8c0,0.6-0.3,1.2-0.4,1.8c0,0.5-0.1,1.2-0.1,1.8l-0.3,1.8l-0.4,1.9l-0.4,1.9c-0.4,0.6-0.4,1.2-0.8,1.8
		l-0.8,1.8c-0.4,0.6-0.9,1-1.3,1.6l-1,1.6l-1.2,1.6c-0.6,0.9-0.5,1.7,0.1,2.5c0.4,0.4,0.9,0.6,1.3,0.8c0.4,0.1,0.9,0.1,1.4,0
		c0.4-0.1,0.9-0.5,1.6-1l1.8-0.8l1.8-0.9l1.8-0.5l1.9-0.3h1.9c0.4,0,1,0.1,1.9,0.3c0.6,0.1,1.3-0.1,1.9,0.3c0.5,0.4,1,0.5,1.7,0.9
		c0.5,0.4,1.2,0.3,1.8,0.6l1.8,0.5c0.5,0.4,1.2,0.3,1.8,0.6c1.2,0.4,1.9,0.3,2.5-0.4c0.4-0.4,0.5-0.9,0.5-1.4c0.1-0.4,0-0.8-0.4-1.3
		c-0.5-0.9-0.9-1.7-1.4-2.3l-1.3-1.4c-0.4-0.5-0.3-1.2-0.6-1.8c-0.4-0.6-0.6-1.3-0.8-1.7l-0.4-1.8c-0.1-0.6,0.1-1.3,0.1-1.9
		c-0.1-0.5-0.1-1.2-0.1-1.7c-0.1-0.6-0.3-1.2-0.3-1.7v-7c0-0.5,0.1-1.2,0.1-1.8c0-0.8,0-1.4,0.1-1.8v-1.8c0-0.6-0.1-1.3-0.1-1.8
		c0-0.6,0.1-1.3,0.1-1.9c0-0.5-0.1-1.2-0.1-1.8s0.1-1.2,0.1-1.8c0-0.6-0.1-1.3-0.1-1.8c0-0.6,0.1-1.3,0.1-1.9c0-0.5-0.1-1.2-0.1-1.8
		s0.1-1.2,0.1-1.8v-3.6c0-0.6,0.1-1.3,0.1-1.9v-1.8c0-0.6-0.3-1.2-0.3-1.8c0.1-0.6,0.1-1.3,0.1-1.8v-1.9c0-0.5,0.1-1.2,0.1-1.8
		c0-0.5,0.1-1.2,0.1-1.8v-5.6c0.1-0.5,0.4-1.2,0.4-1.8s-0.1-1.3,0-1.9c0-0.5,0.1-1.2,0.3-1.8c0.4-0.6,0.3-1.3,0.6-1.8
		c0.4-0.6,0.4-1.2,0.9-1.7c0.3-0.5,0.6-1,1.3-1.4c0.4-0.4,1-0.6,1.7-0.9c0.4-0.3,0.8-0.6,0.9-1c0-0.5,0.3-1-0.1-1.6
		C137.2,122.8,136.4,122.5,135.2,122.6z"/>
	<g>
		<g>
			<path fill="#020100" d="M140.5,226.9c-4,41.9,26.8,79.2,68.7,83.2c41.9,4,79.2-26.8,83.2-68.7c4-41.9-26.8-79.2-68.7-83.2
				C181.8,154.2,144.5,185,140.5,226.9z M161.5,186.4c7.6-0.4,15.9,1.5,24.8,3.6c12.1,2.8,25.3,5.9,40.2,4.2c1,2.7,1.9,5.5,2.8,8.4
				c0.6,1.9,1.1,3.7,1.7,5.6c-31.3,3.1-64.5,12.7-87,33c-0.4-4.6-0.5-9.2,0-13.9C145.5,211.5,151.9,197.4,161.5,186.4z M210.5,161.5
				c4.9,6.8,10,16.7,14.5,28.6c-13.9,1.3-26.4-1.6-37.8-4.3c-7.7-1.8-14.9-3.4-21.8-3.7C177.4,170.5,193.2,162.9,210.5,161.5z
				 M223.4,161.6c12,1.1,23.1,5.2,32.6,11.3c-2.9,7.2-9.9,14.1-26.7,16.7c-4.3-11.3-9.2-21.1-14-28.3
				C217.9,161.3,220.7,161.4,223.4,161.6z M284.9,209.3c-14-2.2-31.4-3-49.7-1.5c-0.6-2.2-1.3-4.4-1.9-6.5c-0.8-2.6-1.7-5.2-2.6-7.7
				c17.8-2.9,25.6-10.2,28.9-18.1C271.2,184,280,195.8,284.9,209.3z M289,241c-0.7,7.3-2.5,14.3-5.1,20.7
				c-2.5-5.5-5.5-11.3-9.3-16.6c-8.1-11.2-19.4-20-34.9-18.8c-0.9-5-2-9.8-3.3-14.6c18.7-1.4,36.3-0.5,50.1,1.8
				C288.9,222.3,289.9,231.6,289,241z M236.7,304.1c1.6-4.5,2.9-9.2,3.8-14c3.8-18.9,3.1-39.8-0.3-59.5c13.6-0.8,23.6,7.1,30.8,17.1
				c4.4,6.1,7.8,13,10.4,19.2C272.4,284.9,256.1,298.5,236.7,304.1z M209.6,306.6c-11.9-1.1-22.8-5.1-32.2-11.1c0.6-1,1.2-2,1.8-3
				c14.7-23.8,35.5-57.3,57-61.5c3.3,19.3,4,39.7,0.3,58.2c-1.1,5.5-2.7,10.9-4.6,16C224.7,306.9,217.2,307.4,209.6,306.6z
				 M144.6,246.2c21.8-21,55.4-30.9,87-33.9c0.2,0,0.3,0,0.5,0c1.3,4.8,2.4,9.7,3.3,14.8c-23.4,4.5-44.7,39-59.8,63.4
				c-0.6,1-1.2,1.9-1.7,2.8C158.6,282.1,147.8,265.3,144.6,246.2z"/>
		</g>
		<g>
			<path fill="#F36B0E" d="M231,208.2c-0.5-1.9-1.1-3.8-1.7-5.6c-0.9-2.9-1.8-5.6-2.8-8.4c-14.9,1.6-28.2-1.4-40.2-4.2
				c-8.9-2.1-17.2-4-24.8-3.6c-0.2,0.3-0.5,0.5-0.7,0.8c-0.1,0.1-0.2,0.2-0.3,0.4c-0.2,0.3-0.4,0.5-0.6,0.8
				c-0.1,0.1-0.2,0.3-0.3,0.4c-0.2,0.3-0.4,0.5-0.6,0.8c-0.1,0.1-0.2,0.2-0.2,0.3c-0.4,0.5-0.8,1.1-1.2,1.6
				c-0.1,0.1-0.2,0.2-0.3,0.4c-0.2,0.3-0.4,0.5-0.6,0.8c-0.1,0.2-0.2,0.3-0.3,0.5c-0.2,0.3-0.4,0.5-0.5,0.8
				c-0.1,0.2-0.2,0.3-0.3,0.5c-0.2,0.3-0.3,0.5-0.5,0.8c-0.1,0.1-0.2,0.3-0.3,0.4c-0.3,0.5-0.6,1-0.9,1.5c-0.1,0.2-0.2,0.4-0.3,0.6
				c-0.1,0.3-0.3,0.5-0.4,0.8c-0.1,0.2-0.2,0.4-0.3,0.6c-0.1,0.2-0.3,0.5-0.4,0.7c-0.1,0.2-0.2,0.5-0.4,0.7
				c-0.1,0.3-0.3,0.6-0.4,0.9c-0.2,0.4-0.4,0.8-0.6,1.1c-0.1,0.2-0.2,0.5-0.3,0.7c-0.1,0.3-0.2,0.5-0.4,0.8
				c-0.1,0.2-0.2,0.5-0.3,0.7c-0.1,0.3-0.2,0.5-0.4,0.8c-0.1,0.2-0.2,0.4-0.3,0.7c-0.1,0.4-0.3,0.7-0.4,1.1
				c-0.1,0.2-0.2,0.5-0.3,0.7c-0.1,0.4-0.3,0.8-0.4,1.1c-0.1,0.2-0.1,0.4-0.2,0.6c-0.1,0.3-0.2,0.6-0.3,0.9
				c-0.1,0.2-0.1,0.4-0.2,0.6c-0.1,0.3-0.2,0.7-0.3,1c-0.1,0.2-0.1,0.4-0.2,0.5c-0.2,0.5-0.3,1-0.5,1.5c0,0.1-0.1,0.3-0.1,0.4
				c-0.1,0.4-0.2,0.8-0.3,1.2c0,0.2-0.1,0.4-0.1,0.6c-0.1,0.4-0.2,0.7-0.3,1.1c0,0.2-0.1,0.4-0.1,0.6c-0.1,0.4-0.2,0.9-0.3,1.3
				c0,0.1-0.1,0.2-0.1,0.4c-0.1,0.5-0.2,1.1-0.3,1.6c0,0.2-0.1,0.3-0.1,0.5c-0.1,0.4-0.1,0.8-0.2,1.2c0,0.2-0.1,0.4-0.1,0.6
				c-0.1,0.4-0.1,0.8-0.2,1.2c0,0.2,0,0.4-0.1,0.5c-0.1,0.6-0.1,1.1-0.2,1.7c-0.1,0.6-0.1,1.2-0.1,1.8c0,0.3,0,0.6-0.1,0.9
				c0,0.3,0,0.6,0,0.9c0,0.4,0,0.8,0,1.2c0,0.2,0,0.4,0,0.6c0,0.5,0,0.9,0,1.4c0,0.1,0,0.2,0,0.3c0,0.5,0,1,0,1.5c0,0.1,0,0.1,0,0.2
				c0,0.5,0,1.1,0.1,1.6c0,0,0,0,0,0.1c0.1,1.1,0.1,2.3,0.2,3.4C166.5,220.9,199.8,211.2,231,208.2z"/>
			<path fill="#F36B0E" d="M271.1,247.7c-7.2-10-17.2-17.9-30.8-17.1c3.3,19.7,4.1,40.6,0.2,59.5c-1,4.8-2.2,9.5-3.8,14
				c0.1,0,0.1,0,0.2-0.1c0.5-0.2,1-0.3,1.6-0.5c0.1,0,0.3-0.1,0.4-0.1c0.4-0.1,0.9-0.3,1.3-0.4c0.2-0.1,0.3-0.1,0.5-0.2
				c0.4-0.1,0.8-0.3,1.2-0.4c0.2-0.1,0.4-0.1,0.5-0.2c0.4-0.2,0.8-0.3,1.2-0.5c0.2-0.1,0.4-0.2,0.6-0.2c0.4-0.2,0.8-0.3,1.1-0.5
				c0.2-0.1,0.4-0.2,0.5-0.2c0.4-0.2,0.8-0.3,1.1-0.5c0.2-0.1,0.4-0.2,0.5-0.3c0.4-0.2,0.7-0.4,1.1-0.5c0.2-0.1,0.3-0.2,0.5-0.3
				c0.4-0.2,0.7-0.4,1.1-0.6c0.2-0.1,0.3-0.2,0.5-0.3c0.4-0.2,0.8-0.4,1.1-0.6c0.2-0.1,0.3-0.2,0.5-0.3c0.4-0.2,0.8-0.5,1.2-0.7
				c0.1-0.1,0.3-0.2,0.4-0.2c0.4-0.2,0.8-0.5,1.2-0.8c0.1-0.1,0.2-0.1,0.3-0.2c0.5-0.3,0.9-0.6,1.4-0.9c0,0,0.1-0.1,0.1-0.1
				c2.1-1.4,4-2.9,5.9-4.4c0,0,0,0,0,0c0.5-0.4,0.9-0.8,1.4-1.2c0.1,0,0.1-0.1,0.2-0.1c0.4-0.4,0.8-0.7,1.2-1.1
				c0.1-0.1,0.2-0.1,0.2-0.2c0.4-0.3,0.7-0.7,1.1-1c0.1-0.1,0.2-0.2,0.3-0.3c0.3-0.3,0.7-0.7,1-1c0.1-0.1,0.2-0.2,0.3-0.3
				c0.3-0.3,0.7-0.7,1-1c0.1-0.1,0.2-0.2,0.3-0.3c0.3-0.3,0.6-0.7,1-1.1c0.1-0.1,0.2-0.2,0.3-0.3c0.3-0.4,0.6-0.7,1-1.1
				c0.1-0.1,0.2-0.2,0.2-0.3c0.3-0.4,0.6-0.8,0.9-1.2c0.1-0.1,0.1-0.2,0.2-0.3c0.3-0.4,0.6-0.8,1-1.2c0.1-0.1,0.1-0.1,0.2-0.2
				c0.3-0.4,0.7-0.9,1-1.3c0,0,0.1-0.1,0.1-0.1c2.2-3,4.1-6.2,5.8-9.6c0,0,0,0,0,0C278.9,260.6,275.5,253.8,271.1,247.7z"/>
			<path fill="#F36B0E" d="M160.9,281.2C161,281.2,161,281.2,160.9,281.2c0.4,0.5,0.8,0.9,1.2,1.3c0,0,0,0,0,0
				c0.4,0.4,0.8,0.9,1.2,1.3c0,0,0,0,0,0c0.4,0.4,0.8,0.8,1.2,1.3c0,0,0,0,0,0c0.4,0.4,0.8,0.8,1.2,1.2c0,0,0,0,0,0
				c2.5,2.5,5.2,4.7,8.1,6.8c0.6-0.9,1.2-1.9,1.7-2.8c15.2-24.5,36.5-58.9,59.8-63.4c-1-5-2.1-10-3.3-14.8c-0.2,0-0.3,0-0.5,0
				c-31.6,3.1-65.2,12.9-87,33.9c0.4,2.4,0.9,4.7,1.5,7.1c0,0,0,0,0,0c0.2,0.6,0.3,1.2,0.5,1.7c0,0,0,0,0,0c0.2,0.6,0.3,1.1,0.5,1.7
				c0,0,0,0,0,0c0.2,0.6,0.4,1.1,0.6,1.7c0,0,0,0,0,0c0.2,0.6,0.4,1.1,0.6,1.7c0,0,0,0,0,0c0.2,0.5,0.4,1.1,0.6,1.6c0,0,0,0,0,0
				c0.2,0.5,0.4,1.1,0.7,1.6c0,0,0,0,0,0c0.2,0.5,0.5,1.1,0.7,1.6c0,0,0,0,0,0c0.2,0.5,0.5,1,0.7,1.6c0,0,0,0,0,0
				c0.3,0.5,0.5,1,0.8,1.5c0,0,0,0,0,0c0.3,0.5,0.5,1,0.8,1.5c0,0,0,0,0,0c0.3,0.5,0.6,1,0.9,1.5c0,0,0,0,0,0c0.3,0.5,0.6,1,0.9,1.5
				c0,0,0,0,0,0c0.3,0.5,0.6,1,0.9,1.4c0,0,0,0,0,0.1c0.3,0.5,0.6,0.9,1,1.4c0,0,0,0,0,0c0.3,0.5,0.7,0.9,1,1.4c0,0,0,0,0,0
				c0.3,0.5,0.7,0.9,1,1.4c0,0,0,0,0,0c0.4,0.4,0.7,0.9,1.1,1.3c0,0,0,0,0,0C160.2,280.3,160.6,280.8,160.9,281.2z"/>
			<path fill="#F36B0E" d="M211.8,306.8c0.4,0,0.8,0,1.2,0.1c0.2,0,0.4,0,0.6,0c0.4,0,0.9,0,1.3,0c0.1,0,0.3,0,0.4,0
				c0.5,0,1.1,0,1.6,0c0.2,0,0.4,0,0.7,0c0.3,0,0.7,0,1,0c0.3,0,0.5,0,0.8,0c0.3,0,0.6,0,0.9,0c0.3,0,0.5,0,0.8,0
				c0.4,0,0.7,0,1.1-0.1c0.4,0,0.9-0.1,1.3-0.1c0.2,0,0.4,0,0.6-0.1c0.3,0,0.7-0.1,1-0.1c0.2,0,0.4,0,0.5-0.1c0.4,0,0.7-0.1,1.1-0.1
				c0,0,0,0,0.1,0c0.9-0.1,1.7-0.3,2.6-0.4c0.1,0,0.1,0,0.2,0c0.4-0.1,0.8-0.1,1.2-0.2c0.1,0,0.2,0,0.3-0.1c0.4-0.1,0.8-0.2,1.2-0.2
				c2-5.1,3.5-10.5,4.6-16c3.7-18.5,3-38.9-0.3-58.2c-21.5,4.2-42.3,37.7-57,61.5c-0.6,1-1.2,2-1.8,3c0,0,0.1,0,0.1,0.1
				c0.5,0.3,1,0.6,1.5,1c0.2,0.1,0.4,0.2,0.6,0.3c0.4,0.2,0.7,0.4,1.1,0.7c0.2,0.1,0.4,0.2,0.7,0.4c0.4,0.2,0.7,0.4,1.1,0.6
				c0.2,0.1,0.4,0.2,0.7,0.4c0.4,0.2,0.8,0.4,1.1,0.6c0.2,0.1,0.4,0.2,0.6,0.3c0.5,0.2,0.9,0.4,1.4,0.7c0.1,0.1,0.2,0.1,0.4,0.2
				c0.6,0.3,1.2,0.5,1.8,0.8c0.2,0.1,0.4,0.1,0.5,0.2c0.4,0.2,0.9,0.4,1.3,0.5c0.2,0.1,0.5,0.2,0.7,0.3c0.4,0.1,0.8,0.3,1.2,0.4
				c0.2,0.1,0.5,0.2,0.7,0.3c0.4,0.1,0.8,0.3,1.2,0.4c0.2,0.1,0.5,0.2,0.7,0.2c0.5,0.1,0.9,0.3,1.4,0.4c0.2,0,0.4,0.1,0.5,0.2
				c0.6,0.2,1.3,0.4,1.9,0.5c0.1,0,0.3,0.1,0.4,0.1c0.5,0.1,1,0.2,1.6,0.4c0.2,0,0.5,0.1,0.7,0.1c0.4,0.1,0.9,0.2,1.3,0.3
				c0.3,0,0.5,0.1,0.8,0.1c0.4,0.1,0.9,0.1,1.3,0.2c0.3,0,0.5,0.1,0.8,0.1c0.5,0.1,0.9,0.1,1.4,0.2c0.2,0,0.4,0.1,0.7,0.1
				c0.7,0.1,1.4,0.2,2.1,0.2c0.6,0.1,1.1,0.1,1.7,0.1C211.4,306.8,211.6,306.8,211.8,306.8z"/>
			<path fill="#F36B0E" d="M269.7,184.5c0,0-0.1-0.1-0.1-0.1c-1.2-1.3-2.4-2.5-3.7-3.7c0,0-0.1-0.1-0.1-0.1c-1.3-1.2-2.6-2.3-4-3.4
				c0,0,0,0-0.1-0.1c-0.7-0.5-1.4-1.1-2.1-1.6l0,0c-3.3,7.8-11.1,15.2-28.9,18.1c0.9,2.5,1.7,5.1,2.6,7.7c0.7,2.1,1.3,4.3,1.9,6.5
				c18.3-1.4,35.7-0.7,49.7,1.5c0,0,0,0,0,0c-0.3-0.8-0.6-1.7-0.9-2.5c0,0,0-0.1,0-0.1c-0.7-1.6-1.4-3.2-2.1-4.8c0,0,0-0.1-0.1-0.1
				c-0.8-1.6-1.6-3.1-2.5-4.6c0-0.1-0.1-0.1-0.1-0.2c-0.9-1.5-1.8-2.9-2.8-4.3c0-0.1-0.1-0.1-0.1-0.2c-1-1.4-2-2.8-3.1-4.1
				c0,0-0.1-0.1-0.1-0.1C272,187,270.9,185.7,269.7,184.5z"/>
			<path fill="#F36B0E" d="M221.1,161.5c-0.6,0-1.1-0.1-1.7-0.1c-0.1,0-0.1,0-0.2,0c-0.6,0-1.3,0-1.9,0c0,0,0,0,0,0
				c-0.7,0-1.3,0-2,0l0,0c4.8,7.2,9.7,17,14,28.3c16.8-2.6,23.8-9.4,26.7-16.7c0,0,0,0,0,0c-1.8-1.1-3.6-2.2-5.4-3.2
				c-0.1,0-0.2-0.1-0.2-0.1c-0.5-0.3-1.1-0.6-1.6-0.8c-0.1,0-0.2-0.1-0.3-0.1c-0.6-0.3-1.1-0.5-1.7-0.8c-0.1,0-0.1-0.1-0.2-0.1
				c-1.3-0.6-2.6-1.1-3.9-1.6c-0.1,0-0.1-0.1-0.2-0.1c-0.6-0.2-1.1-0.4-1.7-0.6c-0.2-0.1-0.3-0.1-0.5-0.2c-0.5-0.2-1-0.3-1.5-0.5
				c-0.2-0.1-0.4-0.1-0.5-0.2c-0.5-0.2-1-0.3-1.5-0.5c-0.2,0-0.3-0.1-0.5-0.1c-1.3-0.4-2.7-0.7-4-1c-0.2,0-0.4-0.1-0.6-0.1
				c-0.5-0.1-1-0.2-1.5-0.3c-0.2,0-0.5-0.1-0.7-0.1c-0.4-0.1-0.9-0.2-1.3-0.2c-0.2,0-0.5-0.1-0.7-0.1c-0.5-0.1-0.9-0.1-1.4-0.2
				c-0.2,0-0.4-0.1-0.7-0.1c-0.7-0.1-1.4-0.2-2.1-0.2c-0.7-0.1-1.3-0.1-2-0.2C221.3,161.5,221.2,161.5,221.1,161.5z"/>
			<path fill="#F36B0E" d="M187.2,185.9c11.4,2.6,24,5.5,37.8,4.3c-4.5-11.9-9.6-21.8-14.5-28.6c-0.3,0-0.7,0.1-1,0.1
				c-0.2,0-0.5,0-0.7,0.1c-0.3,0-0.6,0.1-1,0.1c-0.2,0-0.5,0.1-0.7,0.1c-0.3,0-0.6,0.1-1,0.1c-0.2,0-0.5,0.1-0.7,0.1
				c-0.3,0-0.6,0.1-1,0.2c-0.2,0-0.5,0.1-0.7,0.1c-0.3,0.1-0.6,0.1-1,0.2c-0.2,0-0.5,0.1-0.7,0.1c-0.3,0.1-0.7,0.1-1,0.2
				c-0.2,0-0.4,0.1-0.6,0.1c-0.3,0.1-0.7,0.2-1,0.2c-0.2,0-0.4,0.1-0.5,0.1c-1.8,0.4-3.6,1-5.4,1.5c-0.1,0-0.3,0.1-0.4,0.1
				c-0.4,0.1-0.7,0.3-1.1,0.4c-0.2,0.1-0.3,0.1-0.4,0.2c-0.4,0.1-0.7,0.3-1.1,0.4c-0.1,0.1-0.3,0.1-0.4,0.2
				c-0.4,0.1-0.7,0.3-1.1,0.4c-0.1,0.1-0.3,0.1-0.4,0.2c-0.4,0.2-0.7,0.3-1.1,0.5c-0.1,0.1-0.2,0.1-0.3,0.2
				c-0.4,0.2-0.8,0.3-1.2,0.5c-0.1,0-0.1,0.1-0.2,0.1c-2.8,1.3-5.5,2.8-8.1,4.4c0,0-0.1,0-0.1,0.1c-0.4,0.3-0.8,0.5-1.2,0.8
				c0,0-0.1,0-0.1,0.1c-0.4,0.3-0.8,0.5-1.2,0.8c0,0,0,0-0.1,0c-3.4,2.4-6.6,5-9.6,7.9C172.4,182.5,179.6,184.1,187.2,185.9z"/>
			<path fill="#F36B0E" d="M289.1,238.6c0-0.4,0-0.8,0.1-1.2c0-0.3,0-0.5,0-0.8c0-0.3,0-0.7,0-1c0-0.3,0-0.6,0-0.9
				c0-0.3,0-0.6,0-0.9c0-0.3,0-0.6,0-0.9c0-0.3,0-0.6,0-0.9c0-0.3,0-0.6,0-1c0-0.3,0-0.5,0-0.8c0-0.3,0-0.7-0.1-1
				c0-0.3,0-0.5-0.1-0.7c0-0.3-0.1-0.7-0.1-1c0-0.2,0-0.5-0.1-0.7c0-0.4-0.1-0.7-0.1-1.1c0-0.2-0.1-0.4-0.1-0.7
				c0-0.4-0.1-0.7-0.1-1.1c0-0.2-0.1-0.4-0.1-0.6c-0.1-0.4-0.1-0.8-0.2-1.1c0-0.2-0.1-0.4-0.1-0.6c-0.1-0.4-0.1-0.8-0.2-1.2
				c0-0.2-0.1-0.3-0.1-0.5c-0.1-0.4-0.2-0.8-0.2-1.2c0-0.1-0.1-0.3-0.1-0.4c-0.1-0.4-0.2-0.8-0.3-1.3c0-0.1-0.1-0.2-0.1-0.4
				c-0.1-0.4-0.2-0.9-0.3-1.3c0-0.1,0-0.2-0.1-0.3c-0.1-0.5-0.2-0.9-0.4-1.4c0,0,0,0,0,0c-13.7-2.3-31.4-3.3-50-1.8
				c1.2,4.7,2.3,9.6,3.3,14.6c15.5-1.2,26.8,7.6,34.9,18.8c3.8,5.3,6.9,11,9.3,16.6c0.5-1.2,0.9-2.4,1.4-3.6c0-0.1,0.1-0.2,0.1-0.2
				c0.4-1.1,0.7-2.2,1.1-3.3c0-0.2,0.1-0.3,0.1-0.5c0.1-0.3,0.2-0.6,0.3-0.9c0.1-0.2,0.1-0.4,0.2-0.6c0.1-0.3,0.1-0.6,0.2-0.9
				c0.1-0.5,0.2-0.9,0.3-1.4c0.1-0.2,0.1-0.5,0.1-0.7c0.1-0.3,0.1-0.6,0.2-0.9c0-0.2,0.1-0.4,0.1-0.7c0.1-0.4,0.1-0.8,0.2-1.1
				c0-0.1,0.1-0.3,0.1-0.5c0.1-0.5,0.2-1.1,0.3-1.6c0-0.2,0-0.3,0.1-0.5c0.1-0.4,0.1-0.8,0.2-1.2c0-0.2,0-0.3,0.1-0.5
				c0.1-0.6,0.1-1.1,0.2-1.7c0.1-0.6,0.1-1.2,0.1-1.8C289.1,239,289.1,238.8,289.1,238.6z"/>
		</g>
	</g>
</g>
</svg>
